@startuml
interface IUserRepository{
GetListUserAsync(ViewListUserRequest request): List<ViewListUserResponse>>
}
class UserRepository {
GetListUserAsync(ViewListUserRequest request): List<ViewListUserResponse>>
}

class ViewListUseCase {
  - _userRepository: IUserRepository
  +ExcuteAsync(ViewListUserRequest request): List<ViewListUserResponse>>
}

class UserController {
  - _getAllUser: ViewListUseCase
  + GetAllAsync(ViewListUserRequest request): Task<IActionResult>
}

class ViewListUserRequest {
  + Page: int
  + Size: int
  + Name: string
  +Email: string
  + Phone: string
  +ToSalary: double
  +FromSalary: double
  +Roles: List<string>
  + OrderBy: string
  + Asc: bool
}
class ViewListUserResponse{
+ Id: int
+ Name: string
+ Email: string
+ Phone: string
+ BirthDay: Date
+Salary: double
+Status: StatusEnum
+Roles: List<string>
}






ViewListUseCase ..> ViewListUserRequest
UserController ..> ViewListUseCase
UserController ..> ViewListUserRequest
ViewListUseCase ..> ViewListUserResponse

IUserRepository ..|> UserRepository
ViewListUseCase ..> IUserRepository
@enduml
