@startuml
interface IPatientRepository{
+FindPatientByPhoneAndMailAsync(string phone, string email): List<Patient>
}
interface IValidator<T>
interface IUnitOfWork

class PatientRepository {
+FindPatientByPhoneAndMailAsync(string phone, string email): List<Patient>
}

class CreatePatientUseCase {
  - _patientRepository:IPatientRepository
  - _unitOfWork: IUnitOfWork
  - _validator: IValidator<CreatePatientRequest>
  - _authService: AuthService
  - _emailService: EmailService
  +ExecuteAsync(CreatePatientRequest request): ApiResponse<Patient, List<string>>
}

class CreatePatientValidator {
  + CreatePatientValidator()
}

class PatientController {
  -  _createPatient: CreatePatientUseCase
  + CreateAsync(CreatePatientRequest request): Task<IActionResult>
}

class CreatePatientRequest {
  + Name: string
  + Email: string
  + Phone: string
  + Birthday: DateTime
}


class AuthService {
  + GenerateRandomPassword(): string
}

class EmailService {
  + SendEmailAsync(string toEmail, string subject, string body): Task
}

IPatientRepository <|.. PatientRepository
IPatientRepository <.. CreatePatientUseCase
IUnitOfWork <.. CreatePatientUseCase
IValidator <|.. CreatePatientValidator
IValidator <.. CreatePatientUseCase

CreatePatientUseCase ..> CreatePatientRequest
CreatePatientUseCase ..> AuthService
CreatePatientUseCase ..> EmailService
PatientController ..> CreatePatientUseCase
PatientController ..> CreatePatientRequest

@enduml
