@startuml
interface IPatientRepository{
+GetPatientByIdAsync(int patientId): Patient
}

class PatientRepository {
+GetPatientByIdAsync(int patientId): Patient
}

class GetPatientDetailUseCase {
  - _patientRepository: IPatientRepository
+ ExecuteAsync(int patientId): Task<ApiResponse<PatientDetailDto, string>>
}


class PatientController {
  -  _createPatient: GetPatientDetailUseCase
  +  Task<IActionResult>: ViewProfileAsync(int patientId)
}

class PatientDetailDto{
+  Id: int
+  Name: string
+  Email: string
+  Phone: string
+  BirthDay: DateTime
+  Password: string
+  IsUseGenPassword: bool
}
IPatientRepository <|.. PatientRepository
IPatientRepository <.. GetPatientDetailUseCase

PatientController ..> GetPatientDetailUseCase

GetPatientDetailUseCase ..> PatientDetailDto

@enduml
